<?xml version="1.0" encoding="UTF-8"?>
<svg id="Illustration" xmlns="http://www.w3.org/2000/svg" viewBox="0 0 2500 2500">
  <defs>
    <style>
      .cls-1 {
        fill: #fff;
      }

      .cls-2 {
        fill: #073b3a;
      }

      .cls-3 {
        fill: #a352b7;
      }
    </style>
  </defs>
  <path class="cls-1" d="M1879.18,1920.9c11.24,7.74,119.26-93.68,192.53-244.61,22.72-46.8,163.45-336.7,33.16-506.17-60.1-78.17-168.85-119.01-198.06-92.12-26.58,24.47,28.27,90.73,64.48,244.12,14.69,62.2,44.72,194.79,16.44,338.57-31.43,159.78-119.06,252.97-108.56,260.21Z"/>
  <path class="cls-3" d="M1880.75,1923.62c-1.13,0-2.09-.27-2.88-.82-5.18-3.57.63-13.17,14.68-36.37,25.07-41.39,71.72-118.42,92.92-226.18,28.77-146.23-2.9-280.33-16.42-337.6-16.12-68.28-36.06-119.56-50.62-157.01-18.74-48.18-29.06-74.71-13.18-89.33,7.59-6.99,20.33-9.94,36.83-8.52,45.16,3.88,118.21,40.57,164.61,100.93,118.38,153.98,16.41,406.96-32.92,508.58-66.66,137.32-166.4,239.58-190.66,245.98-.85.23-1.65.34-2.37.34ZM1880.6,1919.03c10.56,2.62,115.13-91.51,189.04-243.74,48.96-100.85,150.22-351.82,33.41-503.76-45.61-59.32-117.17-95.36-161.36-99.15-15.2-1.3-26.7,1.23-33.31,7.32-13.56,12.49-3.65,37.99,14.35,84.28,14.61,37.57,34.62,89.02,50.81,157.62,13.59,57.55,45.41,192.34,16.45,339.55-21.35,108.56-68.29,186.05-93.5,227.68-8.47,13.99-16.49,27.22-15.89,30.21Z"/>
  <path class="cls-1" d="M1880.96,1859.86c6.56,2.63,49.63-60.92,69.5-145.54,6.16-26.24,44.32-188.78-40.81-259.62-39.27-32.68-98.89-40.95-110.59-24.04-10.65,15.39,24.61,42.65,60.36,116.06,14.5,29.77,44.76,93.37,46.82,169.27,2.29,84.34-31.41,141.41-25.28,143.87Z"/>
  <path class="cls-3" d="M1881.39,1862.24c-.45,0-.88-.08-1.29-.25-4-1.6-2.19-7,2.64-21.44,7.94-23.7,22.72-67.83,21.19-124.51-2.08-76.94-33.27-140.98-46.59-168.32-15.88-32.61-31.77-56.23-43.37-73.47-15.22-22.63-23.61-35.09-16.81-44.91,3.23-4.66,9.59-7.76,18.41-8.96,23.5-3.22,64.98,7.11,95.55,32.54,77.82,64.75,55,204.73,41.58,261.91-18.46,78.6-56.96,140.52-68.97,146.76-.83.43-1.61.65-2.34.65ZM1824.76,1424.41c-3.06,0-5.93.18-8.56.54-7.51,1.02-12.78,3.45-15.25,7.02-5,7.23,3.22,19.46,16.85,39.71,11.68,17.36,27.67,41.13,43.69,74.03,13.45,27.61,44.94,92.28,47.05,170.21,1.56,57.49-13.39,102.12-21.42,126.1-2.07,6.17-4.04,12.07-4.51,14.93,9.6-7.05,47.37-65.48,65.61-143.16,13.23-56.35,35.8-194.22-40.04-257.33-26.1-21.72-60.26-32.06-83.41-32.06Z"/>
  <path class="cls-1" d="M603.56,1717.13c-24.57-39.75-55.61-96.13-82.9-167.26-24.44-63.67-72.3-208.03-64.79-401,5.44-139.66,11.26-288.94,101.76-340.14,36.3-20.54,68.64-15.35,104.66-53.36,34.37-36.27,43.74-81.98,55.27-138.17,12.14-59.18,19.14-92.66,3.45-103.63-28.95-20.26-114.85,36.84-169.26,103.63-64.67,79.38-33.77,109.7-107.08,203.8-36.63,47.01-65.37,66.44-72.54,113.99-6.08,40.36,11.07,49.93,10.36,100.17-1.01,71.94-36.52,75.84-41.45,141.63-4.76,63.51,27.18,75.33,38,172.72,6.09,54.86-.92,78.92,0,107.08,2.06,62.79,43.93,151.32,224.53,260.52Z"/>
  <path class="cls-3" d="M603.56,1719.44c-.41,0-.82-.11-1.19-.33-146.93-88.85-222.85-177.14-225.64-262.42-.33-9.98.34-19.62,1.05-29.82,1.36-19.52,2.9-41.65-1.04-77.09-5.24-47.19-15.67-74.68-24.05-96.77-9.18-24.2-16.43-43.32-13.96-76.37,2.37-31.61,11.79-49.34,20.91-66.49,10.29-19.36,20.01-37.65,20.54-74.99.33-23.59-3.36-38.24-6.62-51.17-3.74-14.86-6.98-27.69-3.72-49.31,5.41-35.91,22.64-55.76,46.47-83.25,8.01-9.24,17.09-19.71,26.53-31.82,37.28-47.85,47.35-78.83,57.08-108.79,9.35-28.78,18.19-55.97,50.03-95.05,53.91-66.17,140.95-126.04,172.37-104.06,16.81,11.76,10.04,44.77-2.25,104.68l-.27,1.3c-11.75,57.29-21.03,102.54-55.85,139.29-23.17,24.46-45.35,31.5-66.79,38.32-12.42,3.94-25.26,8.02-38.41,15.46-89.38,50.57-95.08,196.8-100.59,338.22-5.36,137.59,16.99,275.93,64.64,400.08,22.2,57.86,50.03,114,82.71,166.87.56.9.43,2.07-.32,2.83-.44.45-1.04.68-1.64.68ZM706.12,511.84c-34.63,0-103.85,47.01-152.59,106.83-31.3,38.42-40.01,65.2-49.22,93.56-9.86,30.34-20.06,61.72-57.83,110.2-9.51,12.21-18.64,22.73-26.69,32.01-23.33,26.89-40.18,46.33-45.4,80.92-3.12,20.71,0,33.12,3.63,47.5,3.33,13.2,7.1,28.17,6.76,52.36-.54,38.46-10.98,58.1-21.08,77.09-8.89,16.73-18.09,34.03-20.38,64.68-2.4,32.03,4.69,50.73,13.67,74.39,8.47,22.33,19.02,50.12,24.32,97.9,3.98,35.85,2.43,58.19,1.06,77.91-.73,10.52-1.36,19.6-1.04,29.35,2.69,82.05,75.11,167.37,215.29,253.66-30.68-50.72-56.95-104.33-78.12-159.5-47.87-124.73-70.32-263.71-64.94-401.91,5.56-142.68,11.31-290.22,102.92-342.05,13.57-7.68,26.64-11.83,39.28-15.84,21.85-6.94,42.49-13.5,64.84-37.09,33.91-35.8,43.08-80.48,54.69-137.05l.27-1.3c11.51-56.1,18.45-89.96,4.12-99.98-3.52-2.46-8.12-3.63-13.57-3.63Z"/>
  <path class="cls-1" d="M474.84,1688.38c19.2-5.47,240.55-16.15,300.18,0-20.24,91.96-40.48,183.91-60.72,275.86h-171.57l-67.89-275.86Z"/>
  <path class="cls-3" d="M714.3,1966.54h-171.57c-1.06,0-1.98-.72-2.24-1.75l-67.89-275.86c-.3-1.2.41-2.43,1.61-2.77,18.39-5.24,241.63-16.2,301.41,0,1.19.32,1.91,1.52,1.65,2.72l-60.72,275.86c-.23,1.06-1.17,1.81-2.25,1.81ZM544.53,1961.94h167.92l59.85-271.89c-60.4-14.81-265.86-5.22-294.65.06l66.89,271.83Z"/>
  <path class="cls-1" d="M606.93,1669.85c-18.75,2.8-69.67-166.05-89.73-344.5-15.4-136.97-48.77-433.85,78.47-503.45,42.64-23.32,105.69-22.42,142.6-80.33,15.39-24.14,13.17-38.01,22.07-68.84,31.11-107.75,137.79-216.84,239.58-214.16,32.27.85,31.25,11.05,66.67,11.13,82.2.18,107.7-54.73,186.07-77.11,84.82-24.22,188.06,2.1,199.64,43.33,8.39,29.86-30.83,69.26-60.87,89.43-105.12,70.58-259.28,14.15-266.97,41.9-3.66,13.24,31.38,26.19,27.4,45.19-4.6,22.01-57.87,34.61-101.28,32.66-38.49-1.72-64.19-14.66-68.47-7.06-5.12,9.09,32.53,26.33,33.68,52.65,1.45,33.05-56.12,46.84-114.91,94.9-25.3,20.68-96.34,78.05-113.52,162.46-9.4,46.19,7.51,50.27,2.71,97.48-10.23,100.81-90.09,109.41-137.89,221.16-16.54,38.68-21.49,106.36-31.37,241.72-8.61,117.95-4.68,160.04-13.9,161.42Z"/>
  <path class="cls-3" d="M606.46,1672.19c-1.5,0-3.06-.61-4.64-1.82-23.24-17.86-68.82-183.76-86.91-344.76-7.93-70.54-19.91-177.14-14.26-277.37,6.83-121.17,38.43-198,93.92-228.35,13.59-7.43,28.93-12.35,45.18-17.55,35.26-11.29,71.72-22.97,96.59-62,10.09-15.84,12.39-26.88,15.56-42.16,1.54-7.43,3.29-15.84,6.24-26.08,15.54-53.81,49.77-108.32,93.92-149.54,47.15-44.02,99.68-67.45,147.93-66.29,15.78.42,23.91,3.07,31.76,5.63,8.61,2.81,16.75,5.46,34.85,5.5h.39c46.7,0,75.22-18.33,105.41-37.73,22.78-14.64,46.33-29.77,79.64-39.29,64.7-18.47,135.92-7.26,172.85,13.37,16.12,9.01,26.37,19.92,29.64,31.56,9.43,33.59-36.3,74.85-61.8,91.97-66.15,44.42-151.38,39.04-207.77,35.47-31.21-1.97-55.86-3.53-58.26,5.13-1.32,4.75,4.84,10.44,11.35,16.45,8.67,8.01,18.49,17.09,16.09,28.6-5.29,25.3-63.58,36.27-103.64,34.49-18.15-.81-33.68-4.13-45.02-6.56-10.67-2.28-19.89-4.25-21.34-1.68-1.31,2.33,4.83,8.2,10.24,13.38,9.72,9.3,23.03,22.03,23.73,38.04.96,21.86-21.55,35.38-52.7,54.1-19.14,11.5-40.84,24.53-63.05,42.68l-.74.6c-26.02,21.26-95.13,77.74-111.98,160.54-4.93,24.22-2.47,36.77.14,50.05,2.4,12.23,4.88,24.87,2.61,47.2-5.68,55.92-32.36,83.74-63.25,115.97-24.99,26.07-53.32,55.61-74.82,105.87-16.39,38.33-21.34,106.05-31.19,240.98-3.31,45.36-4.77,79.48-5.83,104.4-1.9,44.55-2.47,58-10.02,59.13-.27.04-.54.06-.81.06ZM606.93,1669.85h.02-.02ZM996.21,460.83c-101.73,0-204.35,111.07-233.65,212.54-2.91,10.07-4.63,18.39-6.16,25.74-3.15,15.17-5.63,27.15-16.18,43.7-25.77,40.43-64.71,52.9-99.07,63.91-16.03,5.14-31.17,9.99-44.37,17.2-54,29.54-84.8,105.09-91.53,224.57-5.63,99.85,6.33,206.21,14.24,276.6,18.76,166.87,64.94,326.09,85.14,341.62.8.61,1.52.94,1.96.86,3.79-.57,4.76-23.3,6.1-54.77,1.06-24.95,2.52-59.12,5.84-104.55,9.89-135.44,14.85-203.42,31.55-242.45,21.83-51.03,50.46-80.9,75.73-107.25,30.3-31.61,56.48-58.9,61.99-113.24,2.2-21.66-.21-33.96-2.55-45.85-2.7-13.75-5.24-26.74-.13-51.86,17.18-84.41,87.21-141.64,113.58-163.19l.74-.6c22.47-18.37,44.31-31.49,63.59-43.07,29.79-17.89,51.31-30.82,50.48-49.95-.62-14.16-12.65-25.67-22.31-34.91-7.9-7.56-14.14-13.53-11.07-18.97,3.11-5.53,11.84-3.66,26.32-.57,11.18,2.39,26.5,5.67,44.26,6.46,43.23,1.96,94.74-10.84,98.92-30.83,1.87-8.96-6.55-16.74-14.7-24.27-7.58-7-14.73-13.61-12.67-21.06,3.39-12.26,27.1-10.76,62.99-8.49,55.77,3.53,140.05,8.85,204.92-34.7,28.52-19.15,68.02-58.1,59.94-86.9-2.93-10.43-12.42-20.39-27.45-28.78-36.09-20.16-105.84-31.09-169.34-12.96-32.66,9.32-55.92,24.27-78.41,38.73-30.78,19.78-59.85,38.47-107.89,38.47h-.41c-18.83-.04-27.69-2.93-36.27-5.73-7.89-2.57-15.34-5-30.46-5.4-1.21-.03-2.44-.05-3.65-.05Z"/>
  <path class="cls-3" d="M606.93,1672.15c-1.04,0-1.98-.71-2.24-1.76-.21-.85-20.6-86.6-20.76-224.1-.15-126.85,17.36-325.05,101.63-548.89,28.96-76.91,73.67-146.04,132.88-205.44,47.35-47.5,104.02-88.93,168.44-123.12,109.66-58.21,205.14-75.52,206.09-75.68,1.25-.22,2.45.61,2.67,1.87.22,1.25-.62,2.45-1.87,2.67-.95.17-95.82,17.38-204.86,75.29-100.52,53.39-233.99,153.28-299.04,326.05-84.03,223.18-101.49,420.79-101.34,547.26.17,136.97,20.43,222.18,20.63,223.02.3,1.23-.46,2.48-1.7,2.78-.18.05-.36.07-.54.07Z"/>
  <path class="cls-3" d="M556.11,1687.16c-.67,0-1.33-.29-1.79-.85-.39-.47-39.1-48.39-77.27-123.78-35.24-69.6-77.25-177.56-77.25-296.65-.02-331.83,106.63-503.11,170.2-575.67,1.81-2.07,3.12-3.56,3.7-4.34.75-1.02,2.2-1.24,3.22-.48,1.02.76,1.24,2.2.48,3.22-.69.93-1.98,2.41-3.93,4.64-63.14,72.08-169.07,242.32-169.06,572.63,0,118.14,41.71,225.34,76.7,294.47,37.95,74.98,76.4,122.59,76.78,123.06.8.99.65,2.44-.33,3.24-.43.35-.94.52-1.45.52Z"/>
  <path class="cls-3" d="M699.7,1439.36c-.07,0-.14,0-.22,0-1.27-.12-2.2-1.24-2.08-2.51.85-9.16,2.16-18.44,3.87-27.57.23-1.25,1.43-2.06,2.69-1.84,1.25.23,2.07,1.44,1.84,2.69-1.69,9-2.98,18.13-3.82,27.15-.11,1.19-1.11,2.09-2.29,2.09ZM709.88,1385.11c-.21,0-.42-.03-.63-.09-1.22-.35-1.94-1.62-1.59-2.84,2.5-8.82,5.44-17.71,8.74-26.41.45-1.19,1.78-1.79,2.97-1.34,1.19.45,1.79,1.78,1.34,2.97-3.25,8.58-6.15,17.34-8.62,26.03-.29,1.01-1.21,1.68-2.21,1.68ZM729.42,1333.5c-.33,0-.67-.07-.99-.22-1.15-.55-1.63-1.92-1.09-3.07,3.95-8.27,8.3-16.55,12.96-24.6.64-1.1,2.04-1.48,3.15-.84,1.1.64,1.48,2.05.84,3.15-4.59,7.95-8.89,16.11-12.79,24.28-.4.83-1.22,1.31-2.08,1.31ZM757,1285.68c-.45,0-.9-.13-1.3-.4-1.05-.72-1.32-2.15-.6-3.2,5.17-7.57,10.72-15.1,16.49-22.37.79-1,2.24-1.16,3.24-.37,1,.79,1.16,2.24.37,3.24-5.71,7.18-11.19,14.62-16.3,22.1-.45.65-1.17,1.01-1.9,1.01ZM791.33,1242.43c-.56,0-1.11-.2-1.56-.6-.94-.86-1-2.31-.14-3.25,6.21-6.79,12.76-13.47,19.44-19.85.92-.88,2.38-.84,3.26.08.88.92.84,2.38-.08,3.26-6.61,6.31-13.08,12.91-19.23,19.62-.45.5-1.08.75-1.7.75ZM831.28,1204.29c-.66,0-1.31-.28-1.77-.83-.81-.98-.68-2.43.29-3.24,7.09-5.91,14.46-11.66,21.92-17.09,1.03-.75,2.47-.52,3.22.51.75,1.03.52,2.47-.51,3.22-7.37,5.36-14.67,11.05-21.68,16.9-.43.36-.95.54-1.47.54ZM875.96,1171.78c-.76,0-1.51-.38-1.95-1.07-.68-1.08-.36-2.5.72-3.18,4.59-2.89,9.31-5.75,14.05-8.48,3.29-1.9,6.6-3.75,9.93-5.56,1.12-.61,2.51-.2,3.12.92.61,1.12.19,2.51-.92,3.12-3.29,1.79-6.57,3.63-9.83,5.51-4.68,2.7-9.36,5.53-13.89,8.39-.38.24-.81.36-1.23.36ZM924.45,1145.33c-.86,0-1.69-.49-2.08-1.32-.54-1.15-.05-2.52,1.1-3.07,8.3-3.9,16.86-7.64,25.44-11.11,1.18-.47,2.52.1,3,1.28.48,1.18-.09,2.52-1.27,3-8.5,3.43-16.98,7.14-25.2,11-.32.15-.65.22-.98.22ZM975.66,1124.61c-.96,0-1.85-.6-2.18-1.56-.41-1.2.23-2.51,1.43-2.93,8.63-2.96,17.53-5.77,26.46-8.33,1.23-.35,2.5.36,2.85,1.58.35,1.22-.35,2.5-1.58,2.85-8.86,2.55-17.69,5.33-26.24,8.27-.25.09-.5.13-.75.13ZM1028.74,1109.31c-1.04,0-1.99-.71-2.24-1.77-.29-1.24.47-2.48,1.71-2.77,8.85-2.09,17.98-4.03,27.13-5.77,1.26-.24,2.46.58,2.69,1.83.24,1.25-.58,2.45-1.83,2.69-9.08,1.72-18.14,3.65-26.92,5.73-.18.04-.36.06-.53.06ZM1083.01,1098.99c-1.12,0-2.11-.82-2.27-1.97-.18-1.26.69-2.43,1.95-2.61,9.01-1.32,18.27-2.48,27.51-3.45,1.27-.15,2.4.78,2.53,2.05.13,1.26-.78,2.4-2.05,2.53-9.18.97-18.38,2.12-27.33,3.43-.11.02-.22.02-.34.02ZM1358.87,1097.63c-1.26,0-2.28-1.01-2.3-2.27-.02-1.27,1-2.32,2.27-2.33,9.75-.14,18.74-.51,27.48-1.13,1.27-.07,2.37.86,2.46,2.13.09,1.27-.86,2.37-2.13,2.46-8.83.63-17.9,1.01-27.74,1.15h-.03ZM1331.24,1097.43h-.06c-8.35-.22-17.4-.58-27.67-1.09-1.27-.07-2.25-1.15-2.18-2.42.07-1.27,1.18-2.28,2.42-2.18,10.23.52,19.24.87,27.56,1.09,1.27.03,2.27,1.09,2.24,2.36-.03,1.25-1.06,2.24-2.3,2.24ZM1276.03,1094.77s-.09,0-.14,0l-4.18-.25c-7.82-.47-15.62-.94-23.39-1.37-1.27-.07-2.24-1.16-2.17-2.42.07-1.27,1.16-2.29,2.43-2.17,7.78.43,15.59.9,23.42,1.37l4.18.25c1.27.08,2.24,1.17,2.16,2.44-.07,1.22-1.09,2.16-2.3,2.16ZM1413.95,1093.51c-1.12,0-2.11-.82-2.28-1.96-.19-1.26.68-2.43,1.94-2.62,9.31-1.38,18.36-3.16,26.89-5.28,1.22-.3,2.48.45,2.79,1.68.31,1.23-.45,2.48-1.68,2.79-8.68,2.15-17.87,3.96-27.32,5.36-.11.02-.23.02-.34.02ZM1137.96,1093.17c-1.2,0-2.21-.93-2.3-2.15-.09-1.27.87-2.37,2.14-2.45,9.11-.61,18.42-1.08,27.69-1.37.02,0,.05,0,.07,0,1.24,0,2.26.98,2.3,2.23.04,1.27-.96,2.33-2.23,2.38-9.21.29-18.47.76-27.52,1.37-.05,0-.11,0-.16,0ZM1220.83,1091.88s-.05,0-.08,0c-9.17-.31-18.44-.48-27.56-.49-1.27,0-2.3-1.03-2.3-2.31,0-1.27,1.03-2.3,2.3-2.3h0c9.16.02,18.48.18,27.7.5,1.27.04,2.27,1.11,2.22,2.38-.04,1.24-1.06,2.22-2.3,2.22ZM1467.45,1080.05c-.93,0-1.81-.57-2.16-1.5-.45-1.19.16-2.52,1.35-2.96,8.63-3.23,17.02-6.98,24.93-11.16,1.13-.6,2.52-.16,3.11.96.6,1.12.17,2.52-.96,3.11-8.09,4.28-16.66,8.11-25.47,11.41-.27.1-.54.15-.81.15ZM1516.16,1054.27c-.72,0-1.43-.34-1.88-.97-.74-1.04-.5-2.47.54-3.21,7.29-5.19,14.43-10.98,21.22-17.21.93-.86,2.39-.8,3.25.14.86.94.8,2.39-.14,3.25-6.93,6.36-14.22,12.27-21.66,17.56-.4.29-.87.43-1.33.43ZM1556.86,1017.11c-.54,0-1.08-.19-1.52-.57-.96-.84-1.05-2.29-.22-3.25,5.81-6.65,11.53-13.87,17.01-21.46.74-1.03,2.18-1.26,3.22-.52,1.03.74,1.26,2.18.52,3.22-5.56,7.71-11.37,15.05-17.28,21.8-.46.52-1.09.79-1.73.79ZM1589.23,972.45c-.41,0-.82-.11-1.2-.34-1.09-.66-1.43-2.08-.77-3.17,4.56-7.48,9.11-15.53,13.52-23.91.59-1.13,1.99-1.56,3.11-.96,1.12.59,1.56,1.99.96,3.11-4.46,8.47-9.05,16.6-13.66,24.17-.43.71-1.19,1.1-1.97,1.1ZM1615.06,923.63c-.32,0-.65-.07-.97-.21-1.15-.54-1.66-1.9-1.12-3.06,3.67-7.9,7.41-16.38,11.11-25.21.49-1.18,1.85-1.73,3.01-1.23,1.17.49,1.73,1.84,1.23,3.01-3.73,8.89-7.49,17.42-11.18,25.37-.39.84-1.22,1.33-2.09,1.33ZM1636.54,872.69c-.28,0-.56-.05-.83-.16-1.19-.46-1.77-1.79-1.31-2.98,3.01-7.75,6.2-16.2,9.76-25.84.44-1.19,1.77-1.8,2.96-1.36,1.19.44,1.8,1.77,1.36,2.96-3.57,9.66-6.77,18.14-9.79,25.92-.36.91-1.23,1.47-2.15,1.47ZM1655.8,820.85c-.26,0-.53-.04-.79-.14-1.19-.44-1.81-1.76-1.37-2.96,3.51-9.58,6.7-18.05,9.74-25.9.46-1.19,1.79-1.77,2.98-1.32,1.19.46,1.77,1.79,1.32,2.98-3.03,7.82-6.2,16.27-9.71,25.83-.34.93-1.22,1.51-2.16,1.51ZM1675.82,769.33c-.3,0-.6-.06-.89-.18-1.17-.49-1.73-1.84-1.24-3.01,3.71-8.87,7.47-17.42,11.16-25.39.54-1.15,1.91-1.66,3.06-1.12,1.15.53,1.66,1.9,1.12,3.06-3.67,7.93-7.4,16.42-11.09,25.24-.37.88-1.23,1.41-2.13,1.41ZM1699.13,719.2c-.36,0-.72-.08-1.07-.26-1.13-.59-1.56-1.98-.97-3.11,4.43-8.47,9.01-16.62,13.61-24.23.66-1.09,2.08-1.44,3.16-.78,1.09.66,1.44,2.07.78,3.16-4.55,7.53-9.08,15.61-13.47,23.99-.41.78-1.21,1.23-2.04,1.23ZM1727.83,671.97c-.46,0-.93-.14-1.34-.43-1.03-.74-1.28-2.18-.54-3.21,5.53-7.75,11.31-15.13,17.17-21.93.83-.97,2.28-1.07,3.25-.24.96.83,1.07,2.28.24,3.25-5.77,6.69-11.46,13.96-16.9,21.6-.45.63-1.16.96-1.88.96ZM1763.98,630.27c-.62,0-1.23-.25-1.68-.73-.87-.93-.82-2.39.11-3.25,6.9-6.44,14.14-12.4,21.51-17.74,1.03-.74,2.47-.51,3.21.52.75,1.03.52,2.47-.51,3.21-7.21,5.22-14.3,11.07-21.06,17.38-.44.41-1.01.62-1.57.62ZM1808.65,598.05c-.82,0-1.61-.44-2.03-1.21-.6-1.12-.18-2.52.94-3.12,1.41-.76,2.84-1.5,4.28-2.24,6.6-3.35,13.5-6.4,21.11-9.33,1.18-.45,2.52.13,2.98,1.32.46,1.19-.14,2.52-1.32,2.98-7.46,2.87-14.22,5.86-20.68,9.14-1.41.72-2.8,1.45-4.19,2.19-.35.19-.72.27-1.09.27ZM1859.96,577.8c-.99,0-1.91-.65-2.21-1.65-.36-1.22.33-2.5,1.55-2.86,9-2.67,18.16-5.11,26.72-7.35,1.23-.32,2.49.42,2.81,1.65.32,1.23-.42,2.49-1.65,2.81-8.52,2.22-17.63,4.65-26.57,7.3-.22.07-.44.09-.65.09ZM1913.33,563.41c-1.01,0-1.94-.67-2.22-1.69-.34-1.23.38-2.49,1.61-2.83,10.26-2.82,18.62-5.36,26.32-7.98,1.21-.41,2.51.23,2.92,1.44.41,1.2-.23,2.51-1.44,2.92-7.79,2.65-16.23,5.21-26.58,8.06-.2.06-.41.08-.61.08ZM1965.45,545.22c-.87,0-1.7-.49-2.09-1.33-.54-1.15-.03-2.52,1.12-3.06,2.86-1.33,5.66-2.71,8.32-4.1,5.26-2.75,10.48-5.84,15.49-9.17,1.05-.71,2.49-.42,3.19.64.7,1.06.42,2.49-.64,3.19-5.15,3.42-10.5,6.59-15.91,9.41-2.73,1.43-5.59,2.84-8.51,4.2-.31.15-.64.21-.97.21ZM2011.3,514.77c-.63,0-1.25-.25-1.7-.75-.86-.94-.79-2.4.15-3.25,6.64-6.05,12.95-12.72,18.76-19.8.81-.98,2.26-1.13,3.24-.32.99.81,1.13,2.26.32,3.24-5.95,7.26-12.42,14.08-19.22,20.29-.44.4-1,.6-1.55.6ZM2046.26,472.2c-.41,0-.82-.11-1.2-.34-1.09-.66-1.43-2.08-.77-3.16,4.72-7.74,8.96-15.89,12.6-24.22.51-1.16,1.86-1.7,3.03-1.19,1.16.51,1.7,1.86,1.19,3.03-3.72,8.52-8.06,16.86-12.89,24.78-.43.71-1.19,1.1-1.97,1.1ZM2068.31,421.69c-.21,0-.42-.03-.63-.09-1.22-.35-1.94-1.62-1.59-2.84,2.48-8.8,4.34-17.79,5.54-26.72.17-1.26,1.32-2.15,2.59-1.98,1.26.17,2.15,1.33,1.98,2.59-1.23,9.15-3.14,18.35-5.67,27.36-.29,1.01-1.21,1.68-2.22,1.68ZM2075.57,367.1c-1.26,0-2.28-1.01-2.3-2.27-.14-9.14-.98-18.27-2.51-27.13-.22-1.25.62-2.45,1.88-2.66,1.27-.21,2.45.62,2.66,1.88,1.57,9.1,2.44,18.46,2.58,27.85.02,1.27-1,2.32-2.27,2.34h-.03Z"/>
  <path class="cls-3" d="M703.42,1619.32c-1.22,0-2.24-.96-2.3-2.19-.16-3.23-.24-6.53-.24-9.79,0-5.99.27-12.09.8-18.13.11-1.27,1.24-2.23,2.5-2.09,1.27.11,2.2,1.23,2.09,2.49-.52,5.91-.78,11.87-.78,17.73,0,3.19.08,6.41.23,9.57.06,1.27-.92,2.35-2.19,2.41-.04,0-.08,0-.11,0ZM708.16,1564.43c-.16,0-.33-.02-.49-.05-1.24-.27-2.03-1.5-1.76-2.74,1.94-8.89,4.47-17.92,7.52-26.84.41-1.2,1.72-1.84,2.92-1.43,1.2.41,1.85,1.72,1.43,2.93-3,8.76-5.48,17.62-7.38,26.33-.23,1.08-1.19,1.81-2.25,1.81ZM725.89,1512.21c-.32,0-.65-.07-.96-.21-1.15-.53-1.66-1.9-1.13-3.05,3.78-8.21,8.08-16.53,12.78-24.72.63-1.1,2.04-1.48,3.14-.85,1.1.63,1.48,2.04.85,3.14-4.63,8.08-8.87,16.27-12.59,24.35-.39.84-1.22,1.34-2.09,1.34ZM753.27,1464.28c-.45,0-.9-.13-1.3-.4-1.05-.72-1.32-2.15-.6-3.2,5.1-7.47,10.64-15,16.47-22.39.79-1,2.24-1.17,3.24-.38,1,.79,1.17,2.24.38,3.23-5.76,7.3-11.24,14.75-16.28,22.13-.45.65-1.17,1.01-1.9,1.01ZM787.43,1420.87c-.55,0-1.1-.19-1.53-.59-.95-.85-1.03-2.3-.18-3.25,6.05-6.76,12.48-13.55,19.1-20.16.9-.9,2.36-.9,3.26,0,.9.9.9,2.36,0,3.26-6.56,6.56-12.93,13.28-18.92,19.98-.46.51-1.09.77-1.72.77ZM826.48,1381.75c-.63,0-1.25-.25-1.71-.76-.86-.94-.78-2.4.16-3.25,6.8-6.18,13.84-12.3,20.94-18.19.98-.81,2.43-.68,3.24.3.81.98.68,2.43-.3,3.24-7.04,5.86-14.03,11.93-20.78,18.06-.44.4-1,.6-1.55.6ZM868.97,1346.42c-.69,0-1.38-.31-1.83-.91-.77-1.01-.58-2.46.44-3.23,7.29-5.55,14.83-11.04,22.41-16.33,1.05-.72,2.48-.47,3.21.57.73,1.04.47,2.48-.57,3.21-7.53,5.25-15.02,10.71-22.26,16.22-.42.32-.91.47-1.39.47ZM914.3,1314.82c-.76,0-1.51-.38-1.94-1.07-.68-1.07-.37-2.5.71-3.18,7.72-4.91,15.68-9.77,23.68-14.41,1.1-.64,2.51-.27,3.15.83.64,1.1.27,2.51-.83,3.15-7.94,4.62-15.86,9.44-23.52,14.32-.38.24-.81.36-1.23.36ZM962.07,1287.05c-.83,0-1.62-.45-2.04-1.23-.59-1.12-.17-2.52.96-3.11,8.12-4.3,16.45-8.49,24.76-12.47,1.15-.56,2.52-.07,3.07,1.08.55,1.15.07,2.52-1.08,3.07-8.25,3.96-16.53,8.13-24.6,12.39-.34.18-.71.27-1.07.27ZM1011.89,1263.16c-.89,0-1.74-.52-2.12-1.39-.5-1.17.03-2.52,1.2-3.03,8.44-3.65,17.07-7.19,25.65-10.52,1.18-.46,2.52.13,2.98,1.32.46,1.19-.13,2.52-1.31,2.98-8.53,3.31-17.1,6.82-25.48,10.45-.3.13-.61.19-.91.19ZM1063.4,1243.17c-.95,0-1.85-.6-2.18-1.55-.41-1.2.22-2.51,1.43-2.93,8.68-3,17.55-5.87,26.37-8.56,1.21-.37,2.5.31,2.87,1.53.37,1.22-.32,2.5-1.53,2.87-8.76,2.67-17.58,5.52-26.2,8.5-.25.09-.5.13-.75.13ZM1116.26,1227.1c-1.02,0-1.95-.68-2.23-1.71-.33-1.23.41-2.49,1.64-2.82,8.85-2.34,17.91-4.56,26.92-6.59,1.24-.27,2.47.5,2.75,1.74.28,1.24-.5,2.47-1.74,2.75-8.96,2.02-17.96,4.22-26.76,6.55-.2.05-.39.08-.59.08ZM1623.21,1226.25c-4.28,0-8.56-.04-12.84-.12-1.27-.02-2.28-1.07-2.26-2.35.02-1.26,1.05-2.26,2.3-2.26h.04c9.18.17,18.47.16,27.54-.05,1.31-.09,2.33.98,2.36,2.25.03,1.27-.98,2.33-2.25,2.36-4.91.11-9.92.17-14.89.17ZM1582.8,1225.12s-.08,0-.13,0c-8.78-.47-18.08-1.1-27.64-1.86-1.27-.1-2.21-1.21-2.11-2.48.1-1.27,1.19-2.2,2.48-2.11,9.52.76,18.77,1.39,27.51,1.85,1.27.07,2.24,1.15,2.18,2.42-.07,1.23-1.08,2.18-2.3,2.18ZM1665.65,1224.76c-1.2,0-2.21-.92-2.29-2.13-.09-1.27.86-2.37,2.13-2.46,7.28-.53,14.52-1.22,21.53-2.04,1.94-.23,3.88-.47,5.82-.73,1.26-.16,2.42.72,2.59,1.98.17,1.26-.72,2.42-1.98,2.59-1.96.26-3.92.5-5.89.74-7.08.83-14.39,1.52-21.73,2.06-.06,0-.11,0-.17,0ZM1527.7,1220.76c-.08,0-.15,0-.23-.01-8.26-.83-17.26-1.79-27.51-2.94-1.26-.14-2.17-1.28-2.03-2.55.14-1.26,1.27-2.16,2.55-2.03,10.23,1.15,19.21,2.11,27.46,2.93,1.27.13,2.19,1.25,2.06,2.52-.12,1.19-1.12,2.07-2.29,2.07ZM1720.37,1217.39c-1.07,0-2.03-.75-2.25-1.84-.26-1.25.55-2.46,1.79-2.72,8.89-1.82,17.88-3.97,26.72-6.41,1.22-.33,2.49.38,2.83,1.61.34,1.23-.38,2.49-1.61,2.83-8.93,2.46-18.02,4.64-27.02,6.48-.16.03-.31.05-.46.05ZM1170.17,1214.95c-1.09,0-2.05-.77-2.26-1.88-.23-1.25.59-2.45,1.84-2.69,9.01-1.69,18.2-3.24,27.33-4.61,1.27-.19,2.43.68,2.62,1.94.19,1.26-.68,2.43-1.94,2.62-9.07,1.36-18.21,2.91-27.17,4.58-.14.02-.29.04-.43.04ZM1472.76,1214.67c-.09,0-.18,0-.27-.02l-3.49-.41c-7.98-.94-15.97-1.87-23.96-2.79-1.26-.14-2.17-1.29-2.02-2.55.14-1.26,1.27-2.18,2.55-2.02,7.99.92,15.98,1.85,23.97,2.79l3.49.41c1.26.15,2.17,1.29,2.02,2.55-.14,1.17-1.13,2.04-2.28,2.04ZM1417.84,1208.43c-.08,0-.16,0-.24-.01-9.95-1.04-18.94-1.92-27.47-2.67-1.27-.11-2.2-1.23-2.09-2.5.11-1.27,1.21-2.2,2.5-2.09,8.55.76,17.56,1.63,27.54,2.68,1.26.13,2.18,1.27,2.05,2.53-.12,1.18-1.12,2.06-2.29,2.06ZM1224.81,1206.75c-1.15,0-2.15-.87-2.28-2.04-.14-1.26.77-2.4,2.03-2.55,9.15-1.03,18.44-1.92,27.59-2.62,1.24-.1,2.38.85,2.47,2.12.1,1.27-.85,2.38-2.12,2.47-9.1.7-18.33,1.58-27.43,2.61-.09,0-.18.01-.26.01ZM1362.78,1203.63s-.1,0-.15,0c-8.48-.54-16.75-.96-24.58-1.25l-2.95-.1c-1.27-.04-2.27-1.1-2.23-2.38.04-1.25,1.06-2.23,2.3-2.23.02,0,.05,0,.08,0l2.97.1c7.86.29,16.18.71,24.7,1.25,1.27.08,2.23,1.18,2.15,2.44-.08,1.22-1.09,2.16-2.3,2.16ZM1773.62,1202.72c-.95,0-1.84-.6-2.17-1.55-.42-1.2.22-2.51,1.42-2.93,8.59-2.99,17.22-6.31,25.65-9.88,1.17-.49,2.52.05,3.02,1.22.49,1.17-.05,2.52-1.22,3.02-8.53,3.61-17.25,6.97-25.93,9.99-.25.09-.51.13-.76.13ZM1279.92,1202.51c-1.23,0-2.25-.97-2.3-2.21-.05-1.27.94-2.34,2.21-2.39,9.21-.37,18.54-.58,27.71-.62h0c1.27,0,2.3,1.03,2.3,2.29,0,1.27-1.02,2.31-2.29,2.31-9.12.04-18.39.25-27.55.62-.03,0-.06,0-.09,0ZM1824.5,1181.2c-.84,0-1.66-.47-2.06-1.27-.57-1.14-.11-2.52,1.03-3.09,8.17-4.1,16.3-8.51,24.16-13.11,1.09-.64,2.51-.28,3.15.83.64,1.1.27,2.51-.83,3.15-7.94,4.65-16.16,9.11-24.42,13.25-.33.17-.68.25-1.03.25ZM1872.17,1153.29c-.74,0-1.46-.36-1.91-1.01-.71-1.05-.44-2.49.62-3.2,7.58-5.13,15.06-10.57,22.24-16.16,1-.78,2.45-.6,3.23.4.78,1,.6,2.45-.4,3.23-7.25,5.65-14.82,11.15-22.48,16.34-.4.27-.85.4-1.29.4ZM1915.74,1119.31c-.63,0-1.26-.26-1.71-.76-.85-.95-.77-2.4.18-3.25,6.84-6.13,13.5-12.55,19.79-19.06.88-.91,2.34-.94,3.26-.05.91.88.94,2.34.05,3.26-6.37,6.59-13.11,13.08-20.03,19.28-.44.4-.99.59-1.54.59ZM1954.11,1079.58c-.52,0-1.04-.18-1.47-.53-.98-.81-1.11-2.26-.3-3.24,5.88-7.07,11.51-14.39,16.73-21.77.74-1.04,2.17-1.28,3.21-.55,1.04.74,1.28,2.17.55,3.21-5.29,7.47-10.99,14.89-16.95,22.05-.45.55-1.11.83-1.77.83ZM1985.99,1034.5c-.4,0-.8-.1-1.17-.32-1.09-.65-1.46-2.06-.81-3.16,4.68-7.91,9.04-16.04,12.95-24.17.55-1.15,1.93-1.63,3.07-1.08,1.15.55,1.63,1.93,1.08,3.07-3.98,8.25-8.4,16.5-13.14,24.52-.43.73-1.2,1.13-1.98,1.13ZM2009.91,984.77c-.27,0-.54-.05-.81-.15-1.19-.45-1.79-1.77-1.34-2.96,3.22-8.56,6.06-17.33,8.45-26.06.34-1.23,1.61-1.93,2.83-1.61,1.23.34,1.95,1.6,1.61,2.83-2.43,8.87-5.32,17.77-8.58,26.46-.35.92-1.23,1.49-2.16,1.49ZM2024.46,931.56c-.13,0-.26-.01-.4-.03-1.25-.22-2.09-1.41-1.87-2.67.77-4.43,1.45-8.92,2-13.34.57-4.49,1.05-9.15,1.45-13.86.1-1.27,1.2-2.24,2.49-2.1,1.27.1,2.21,1.22,2.1,2.49-.4,4.77-.89,9.5-1.46,14.05-.57,4.5-1.25,9.06-2.04,13.56-.2,1.12-1.17,1.91-2.27,1.91ZM2029.3,876.56h-.05c-1.27-.02-2.28-1.08-2.26-2.35.08-3.97.11-7.95.12-11.93,0-4.94-.05-10.04-.16-15.61-.02-1.27.99-2.32,2.26-2.35,1.31.03,2.32.99,2.35,2.26.11,5.6.16,10.73.16,15.7,0,4.02-.04,8.02-.12,12.02-.02,1.26-1.05,2.26-2.3,2.26ZM2028.43,821.3c-1.23,0-2.25-.98-2.3-2.22l-.3-8.12c-.24-6.51-.49-13.02-.69-19.51-.04-1.27.96-2.33,2.23-2.38.02,0,.05,0,.08,0,1.24,0,2.26.98,2.3,2.23.21,6.48.45,12.98.69,19.48l.3,8.13c.05,1.27-.94,2.34-2.22,2.38-.03,0-.06,0-.09,0ZM2026.87,766.05c-1.27,0-2.3-1.03-2.3-2.29v-3.19c0-8.85.17-16.89.53-24.56.06-1.27,1.1-2.31,2.41-2.19,1.27.06,2.25,1.14,2.19,2.41-.36,7.6-.53,15.56-.53,24.34v3.17c.01,1.27-1.01,2.31-2.29,2.31h0ZM2029.72,710.89c-.1,0-.19,0-.29-.02-1.26-.16-2.15-1.31-1.99-2.58,1.21-9.59,2.87-18.82,4.92-27.43.29-1.24,1.55-1.99,2.78-1.71,1.24.29,2,1.54,1.7,2.77-2.02,8.45-3.64,17.52-4.83,26.94-.15,1.16-1.14,2.01-2.28,2.01ZM2042.74,657.32c-.28,0-.56-.05-.83-.16-1.19-.46-1.77-1.79-1.32-2.98,3.14-8.12,6.85-16,11.02-23.43.34-.6.68-1.2,1.03-1.8.64-1.1,2.05-1.48,3.15-.84,1.1.64,1.48,2.05.84,3.15-.34.58-.67,1.17-1,1.75-4.06,7.24-7.67,14.92-10.74,22.84-.35.91-1.23,1.47-2.15,1.47ZM2069.96,609.44c-.48,0-.96-.15-1.37-.46-1.02-.76-1.23-2.2-.47-3.22,4.9-6.59,10.11-13.13,15.14-19.45l1.91-2.4c.79-1,2.24-1.16,3.24-.37.99.79,1.16,2.24.37,3.23l-1.91,2.4c-5.01,6.29-10.19,12.8-15.05,19.33-.45.61-1.14.93-1.85.93ZM2103.76,565.71c-.46,0-.93-.14-1.34-.43-1.03-.74-1.28-2.18-.54-3.21,4.97-6.96,9.07-13.36,12.55-19.57.65-1.17,1.29-2.35,1.91-3.55.58-1.13,1.97-1.58,3.1-.99,1.13.58,1.57,1.97.99,3.1-.64,1.24-1.3,2.48-1.98,3.69-3.56,6.36-7.76,12.91-12.83,20-.45.63-1.16.96-1.88.96ZM2128.11,516.49c-.18,0-.37-.02-.56-.07-1.23-.31-1.99-1.56-1.68-2.79,2.05-8.24,3.09-16.36,3.09-24.15,0-.87-.01-1.73-.04-2.6-.04-1.27.96-2.33,2.23-2.37,1.32-.04,2.33.96,2.37,2.23.03.91.04,1.82.04,2.73,0,8.17-1.09,16.67-3.23,25.27-.26,1.05-1.2,1.75-2.23,1.75ZM2125.43,462.27c-.88,0-1.72-.51-2.11-1.37-2.78-6.25-6.6-11.8-11.34-16.51-.9-.9-.91-2.35-.01-3.26.9-.9,2.36-.9,3.26-.01,5.15,5.11,9.29,11.13,12.31,17.9.52,1.16,0,2.52-1.17,3.04-.3.14-.62.2-.94.2Z"/>
  <path class="cls-2" d="M1269.81,1472.36s-186.31,91.53-335.38,70.28c0,0-7.81-53.18,23.58-69.6,31.39-16.42,311.8-.68,311.8-.68Z"/>
  <path class="cls-1" d="M2135.08,1977.54c-.82-4.2-4.3-7.39-8.54-7.9-4.45-.53-12.58-2.22-27.46-6.53-34.4-9.95-90.23-41.37-94.77-42.18l-58.99,60.95s40.39,9.05,65.62,13.22c25.24,4.16,59.82,1.59,74.48-3.3,14.66-4.89,21.56,10.6,39.78,3.3,10.1-4.05,11.05-11.62,9.88-17.56Z"/>
  <path class="cls-3" d="M2039.62,1999.5c-9.97,0-20.06-.65-29.06-2.13-25.01-4.13-65.35-13.15-65.75-13.24-.81-.18-1.46-.79-1.7-1.59-.24-.8-.03-1.66.55-2.26l58.99-60.95c.54-.55,1.3-.81,2.06-.67,1.67.3,6.25,2.59,17.38,8.19,20.22,10.18,54.05,27.22,77.62,34.04,12.56,3.63,21.67,5.8,27.1,6.45,5.28.63,9.51,4.55,10.53,9.74,1.83,9.34-2.18,16.49-11.29,20.14-10.66,4.28-17.9,1.32-24.28-1.28-5.19-2.12-9.67-3.95-15.63-1.97-9.8,3.27-27.94,5.52-46.53,5.52ZM1949.83,1980.52c10.84,2.38,41.23,8.96,61.48,12.3,24.41,4.02,58.87,1.63,73.38-3.21,7.58-2.52,13.3-.19,18.83,2.07,6.11,2.5,11.88,4.85,20.82,1.28,7.12-2.86,9.9-7.76,8.48-14.98-.63-3.23-3.27-5.66-6.56-6.05-5.67-.68-15.03-2.9-27.83-6.6-23.98-6.94-58.05-24.1-78.41-34.36-6.41-3.23-12.52-6.3-15.08-7.39l-55.11,56.94Z"/>
  <path class="cls-2" d="M2032.83,1888.64c-.13-.93-.26-1.87-.4-2.81-6.95-46.33-44.17-82.24-90.63-88.23l-577.34-74.39-15.03-110.49c-118.66,39.65-256.83,55.01-322.25,60.38,23.9,108.17,55.9,228.95,89.14,284.32,38.93,64.85,597.84,56.22,814.9,50.36,62.53-1.69,110.09-57.17,101.61-119.15Z"/>
  <path class="cls-1" d="M1322.92,1417.73l-336.27,46.5s15.99,97.79,40.54,208.87c65.42-5.37,203.59-20.73,322.25-60.38l-26.52-194.99Z"/>
  <path class="cls-3" d="M1027.18,1675.4c-1.07,0-2.01-.74-2.25-1.81-24.27-109.87-40.4-208.02-40.56-208.99-.1-.61.05-1.24.42-1.74.37-.5.92-.83,1.54-.91l336.27-46.5c.59-.09,1.22.07,1.71.45s.81.92.89,1.52l26.52,194.99c.15,1.1-.5,2.14-1.55,2.49-117.34,39.21-252.61,54.73-322.8,60.49-.06,0-.13,0-.19,0ZM989.3,1466.19c2.57,15.41,17.75,104.89,39.69,204.45,70.16-5.85,202.55-21.26,317.9-59.5l-25.95-190.81-331.64,45.86Z"/>
  <path class="cls-2" d="M1123.01,1836.5l379.88-494.32c20.44-26.59,51.6-42.78,85.11-44.2,47.57-2.02,91.33,25.89,109.57,69.87l174.61,421.12-185.67-24.27-75.23-134.58-170.86,292.28-317.4-85.91Z"/>
  <path class="cls-1" d="M1440.41,1924.71c-.39,0-.79-.1-1.16-.31-1.1-.64-1.47-2.05-.83-3.15l100.96-172.7c.64-1.1,2.05-1.47,3.15-.83,1.1.64,1.47,2.05.83,3.15l-100.96,172.7c-.43.73-1.2,1.14-1.99,1.14Z"/>
  <path class="cls-3" d="M1686.5,1767.01c-.81,0-1.59-.43-2.01-1.18l-73.26-131.06-67.87,116.1c-.64,1.1-2.05,1.47-3.15.83s-1.47-2.05-.83-3.15l69.91-119.58c.41-.71,1.17-1.14,1.99-1.14h.02c.83,0,1.59.46,1.99,1.18l75.23,134.58c.62,1.11.22,2.51-.89,3.14-.36.2-.74.29-1.12.29Z"/>
  <path class="cls-1" d="M1872.17,1791.28c-.1,0-.2,0-.3-.02l-185.67-24.26c-1.26-.16-2.15-1.32-1.98-2.58.16-1.26,1.3-2.16,2.58-1.98l185.67,24.26c1.26.16,2.15,1.32,1.98,2.58-.15,1.16-1.14,2-2.28,2Z"/>
  <path class="cls-3" d="M1872.17,1791.28c-.9,0-1.76-.54-2.13-1.42l-174.61-421.12c-17.79-42.91-60.86-70.44-107.34-68.45-32.91,1.4-63.3,17.18-83.38,43.3l-224.98,292.75c-.78,1.01-2.22,1.2-3.23.42-1.01-.78-1.2-2.22-.42-3.23l224.98-292.75c20.91-27.2,52.56-43.64,86.83-45.1,48.33-2.1,93.26,26.59,111.79,71.28l174.61,421.12c.49,1.17-.07,2.52-1.25,3.01-.29.12-.59.18-.88.18Z"/>
  <path class="cls-1" d="M1208.22,1727.93c-.49,0-.98-.16-1.4-.48-1.01-.78-1.2-2.22-.42-3.23l69.69-90.69c.78-1.01,2.22-1.2,3.23-.42,1.01.78,1.2,2.22.42,3.23l-69.69,90.69c-.45.59-1.14.9-1.83.9Z"/>
  <path class="cls-1" d="M1429.4,1959.06s-26.62,18.99-47.36,9.99c-20.74-9.01-49.29-39.56-68.84-40.78-19.55-1.22-53.26,41.24-79.12,40.78-25.86-.46-49.82-18.99-65.12-4.79-15.29,14.21-31.04,40.26-39.1,59.66-8.06,19.4-15.94,50.08,0,60.91,15.94,10.83,55.04-28.27,78.26-34.38,23.22-6.11,140.99,4.34,173.92.48,32.94-3.86,70.49-16.18,70.49-16.18l-23.13-75.7Z"/>
  <path class="cls-3" d="M1136.58,2089.04c-2.97,0-5.66-.71-8.02-2.31-19.75-13.42-5.63-52.15-.83-63.7,7.7-18.53,23.39-45.35,39.66-60.46,10.42-9.68,24.27-5.63,38.94-1.33,8.96,2.62,18.23,5.33,27.79,5.5,12.91.14,28.11-11.05,42.86-21.95,13.52-10,26.27-19.42,36.37-18.82,12.22.76,27.25,11.96,41.78,22.79,10.07,7.5,19.58,14.58,27.83,18.17,19.28,8.38,44.85-9.57,45.11-9.75.6-.43,1.38-.54,2.08-.3.7.24,1.24.8,1.46,1.51l23.13,75.7c.37,1.2-.29,2.47-1.48,2.86-.38.12-38.15,12.44-70.94,16.28-15.36,1.8-47.92.56-82.4-.75-38.85-1.48-79.02-3-91.2.2-8.79,2.31-20.47,9.89-31.78,17.21-15.1,9.79-29.54,19.15-40.34,19.15ZM1183.54,1961.23c-4.92,0-9.3,1.27-13.01,4.71-15.76,14.64-31.03,40.78-38.54,58.86-9.19,22.13-14.24,49.01-.83,58.12,8.4,5.71,26.13-5.78,43.27-16.9,12.14-7.87,23.61-15.3,33.11-17.8,12.85-3.38,51.56-1.91,92.55-.35,32.78,1.25,66.69,2.53,81.69.77,27.87-3.26,59.47-12.76,67.89-15.39l-21.57-70.58c-7.43,4.64-28.97,16.3-46.97,8.48-8.75-3.8-18.46-11.04-28.75-18.7-14-10.43-28.47-21.21-39.32-21.89-8.4-.56-20.51,8.44-33.34,17.93-15.36,11.36-31.27,23.12-45.68,22.86-10.18-.18-20.18-3.11-29-5.69-7.87-2.3-15.13-4.43-21.5-4.43Z"/>
  <path class="cls-2" d="M1412.22,1951.49l6.17,98.97,518.54-42.97,23.86-142.34s-179.88-23.07-236.21-11.18c-74.18,15.66-312.35,97.53-312.35,97.53Z"/>
  <path class="cls-3" d="M1418.39,2052.76c-.55,0-1.09-.2-1.51-.56-.47-.4-.75-.98-.79-1.6l-6.17-98.97c-.08-1.27.89-2.36,2.15-2.44,1.31-.08,2.36.89,2.44,2.15l6.02,96.62,516.2-42.78c1.3-.16,2.38.84,2.49,2.1.1,1.27-.84,2.38-2.11,2.49l-518.54,42.97c-.07,0-.13,0-.19,0Z"/>
  <path class="cls-1" d="M1412.22,1953.79c-.96,0-1.85-.6-2.18-1.55-.41-1.2.22-2.51,1.43-2.93,2.38-.82,239.16-82.1,312.63-97.61,20.52-4.33,59.19-4.6,114.95-.8,1.27.09,2.23,1.19,2.14,2.46-.09,1.27-1.15,2.2-2.46,2.14-55.33-3.78-93.57-3.54-113.68.71-73.2,15.45-309.7,96.64-312.08,97.45-.25.09-.5.13-.75.13Z"/>
  <path class="cls-1" d="M1611.27,1632.43c-.36,0-.72-.08-1.05-.26-1.13-.58-1.57-1.97-.99-3.1l46.49-89.9c.58-1.13,1.97-1.57,3.1-.99,1.13.58,1.57,1.97.99,3.1l-46.49,89.9c-.41.79-1.21,1.25-2.05,1.25Z"/>
  <path class="cls-1" d="M1893.5,919.07l-25.64,16.87,62.68-67.6-3.4-2.92c-6.27-5.39-15.16-6.5-22.57-2.83l-4.43-4.88c-7.05-7.77-19.17-8.04-26.57-.61l-34.98,35.12c-21.99-63.43-70.87-50.74-70.87-50.74l-.06,1.18c-.59,12.16,6.85,23.06,18.17,27.54,6.88,2.73,15.03,8.06,23.49,18.12,22.56,26.84,1.97,35.04-17.9,38.41-13.01,2.21-22.4-2.47-25.01-22.41-2.61-19.94,15.65-33.95-6.61-29.24-11.13,2.36-15.96,17.5-18,32.06-2.38,16.96-8.25,33.28-18.02,47.34-10.98,15.79-23.67,41.97-25.66,80.18-3.61,69.26-64.81,221.55-116.75,214.22-30.45-4.3-92.58-70.37-138.78-124.31-43.76-51.09-105.41-83.72-172.36-90.2-77.53-7.51-149.87-3.26-207.79,4.23-80.44,10.4-149.9,61.34-184.46,134.73-12.39,26.31-26.01,55.52-39.67,85.35-37.32,81.47-209.64,482.43-272.2,628.18-14.37,33.49-43.45,58.41-78.75,67.49l-131.15,33.76c5.25,12.53,17.9,20.31,31.45,19.32,49.68-3.63,165.52-11.88,187.34-11.56,27.94.42,84.47,5.69,118.62,8.14,20.35,1.46,27.29-6.49,29.58-13.15,1.42-4.14-1.59-8.45-5.96-8.45h-14.74l-42.17-25.38c-15.83-9.53-21.28-29.88-12.33-46.04l344.12-621.5,351.17-49.68s58.07,191.34,248.46,189.07c190.39-2.27,188.79-416.9,188.79-416.9,73.62-11.69,143.56-90.02,143.56-90.02l-.56-.51c-8.3-7.58-20.68-8.57-30.07-2.39Z"/>
  <path class="cls-3" d="M385.37,2009.83c-13.59,0-25.94-8.13-31.26-20.82-.26-.62-.24-1.32.06-1.92.3-.6.84-1.04,1.49-1.21l131.15-33.76c34.35-8.84,63.22-33.58,77.2-66.17,69.6-162.15,235.45-547.96,272.22-628.23,12.21-26.66,25.56-55.38,39.68-85.37,35.15-74.65,104.78-125.5,186.25-136.03,71.64-9.25,141.72-10.68,208.3-4.23,67.47,6.54,129.23,38.85,173.89,91,66.38,77.5,113.87,120.21,137.35,123.53,8.54,1.22,17.89-2.31,27.78-10.45,43.74-36.05,83.54-147.78,86.35-201.6,2.04-39.2,15.3-65.89,26.07-81.37,9.25-13.31,15.18-28.9,17.63-46.35,2.86-20.38,9.53-31.82,19.81-34,7.2-1.52,10.77-1.28,12.72.89,2.28,2.53,1.05,6.32-.51,11.11-1.7,5.24-3.81,11.76-2.84,19.18,1.2,9.15,3.83,15.11,8.06,18.24,3.43,2.53,8.11,3.25,14.29,2.2,14.78-2.51,23.03-6.63,25.23-12.61,1.98-5.4-.95-12.81-8.71-22.04-7.12-8.47-14.72-14.35-22.58-17.47-12.37-4.9-20.25-16.88-19.62-29.8l.06-1.19c.05-1.01.75-1.86,1.72-2.12.5-.13,49.37-12.03,72.38,48.77l32.41-32.55c4.03-4.05,9.39-6.21,15.1-6.07,5.71.13,10.97,2.53,14.81,6.76l3.31,3.64c7.89-3.19,16.94-1.75,23.48,3.86l3.4,2.92c.47.41.76.99.8,1.62.04.63-.18,1.24-.61,1.7l-49.75,53.66,9.76-6.42c10.28-6.77,23.8-5.7,32.89,2.61l.56.51c.93.85,1.01,2.29.17,3.24-.7.78-70.11,77.71-142.98,90.44-.1,14.82-1.61,110.94-23.05,206.15-13.65,60.63-32.6,109.08-56.31,143.99-29.89,44-67.47,66.58-111.7,67.11-1.11.01-2.22.02-3.32.02-97.36,0-159.24-51.27-194.12-94.56-33.9-42.07-49.47-84.9-52.63-94.28l-348.12,49.24-343.56,620.5c-8.39,15.15-3.34,34.02,11.5,42.95l41.62,25.05h14.1c2.82,0,5.37,1.31,7,3.6,1.63,2.28,2.05,5.23,1.14,7.9-2.6,7.56-10.26,16.25-31.92,14.7-9.83-.7-21.51-1.64-33.82-2.63-30.39-2.44-64.84-5.21-84.67-5.5-21.65-.34-138.12,7.97-187.14,11.55-.83.06-1.67.09-2.49.09ZM359.51,1989.66c5.4,10.19,16.31,16.33,28.01,15.49,49.07-3.59,165.56-11.89,187.54-11.56,19.98.3,54.51,3.07,84.97,5.52,12.3.99,23.97,1.92,33.78,2.63,14.86,1.05,24.27-2.95,27.24-11.6.44-1.28.25-2.64-.53-3.73-.76-1.06-1.94-1.67-3.25-1.67h-14.74c-.42,0-.83-.11-1.19-.33l-42.17-25.38c-16.97-10.22-22.75-31.8-13.16-49.13l344.11-621.5c.35-.63.98-1.06,1.69-1.16l351.17-49.68c1.12-.16,2.2.52,2.53,1.61.14.48,14.88,48.07,52.52,94.74,34.63,42.93,96.28,93.93,193.71,92.7,42.63-.51,78.95-22.41,107.94-65.09,23.39-34.43,42.11-82.35,55.63-142.41,23.07-102.5,22.94-206.05,22.94-207.08,0-1.14.82-2.11,1.94-2.28,65.93-10.46,129.85-76.06,140.62-87.57-7.48-5.94-17.98-6.47-26.06-1.15l-25.64,16.87c-.98.64-2.27.45-3.02-.43-.75-.89-.72-2.2.07-3.05l61.05-65.85-1.58-1.36c-5.58-4.79-13.45-5.78-20.04-2.51-.92.45-2.04.25-2.73-.52l-4.43-4.88c-2.98-3.28-7.07-5.15-11.5-5.25-4.4-.08-8.6,1.57-11.73,4.72l-34.97,35.12c-.56.57-1.37.81-2.15.62-.77-.18-1.4-.74-1.66-1.49-19.02-54.85-57.88-51.16-66.47-49.61-.27,10.73,6.4,20.6,16.74,24.71,8.58,3.41,16.79,9.72,24.41,18.78,9.02,10.73,12.13,19.43,9.5,26.59-3.75,10.21-18.22,13.78-28.79,15.57-7.48,1.27-13.3.28-17.79-3.04-5.29-3.91-8.52-10.89-9.89-21.34-1.11-8.46,1.28-15.82,3.03-21.2.76-2.35,1.92-5.91,1.46-6.61-.04-.04-1.06-1.01-8.34.54-10.19,2.16-14.44,17.57-16.2,30.13-2.55,18.17-8.74,34.43-18.41,48.34-10.42,15-23.26,40.87-25.25,78.99-2.85,54.63-43.42,168.16-88.02,204.92-10.92,9-21.47,12.84-31.35,11.46-31.08-4.39-93.4-70.45-140.2-125.09-43.88-51.23-104.55-82.99-170.84-89.41-66.23-6.41-135.97-5-207.27,4.22-79.9,10.32-148.19,60.2-182.67,133.42-14.11,29.97-27.46,58.68-39.66,85.33-36.75,80.23-202.58,465.99-272.18,628.13-14.55,33.89-44.56,59.62-80.29,68.81l-128.46,33.06ZM1893.5,919.07h.02-.02Z"/>
  <path class="cls-2" d="M840.34,1199.9l111.06,109.04,430.64,13.22,115.55-183.39s-140.36-103.83-192.24-103.83c-51.88,0-336.72-78.32-465.01,164.97Z"/>
  <path class="cls-1" d="M979.36,1053.64l17.15-8.91c3.19-1.66,7.05.42,7.4,4,3.58,37.32,26.95,200.43,162.08,197.68,134.75-2.74,125.47-171.97,121.46-211.46-.4-3.96,3.27-7.08,7.12-6.08l18.82,4.87c2.22.57,3.88,2.41,4.22,4.68,3.64,24.27,25.4,160.34,62.31,204.64,2,2.4,3.28,5.28,3.69,8.37l25.97,195.94s-24.09,36.81-176.22,41.02c-152.13,4.21-281.96-7.93-297.37,51.83l-3.87-255.08c-.08-5.57,2.37-10.83,6.59-14.47,13.8-11.89,43.28-55.33,35.11-207.28-.22-4.06,1.94-7.89,5.55-9.76Z"/>
  <path class="cls-2" d="M935.98,1542.53c-.09,0-.18,0-.27-.02-1.15-.14-2.01-1.1-2.03-2.25l-3.87-255.08c-.09-6.2,2.6-12.12,7.39-16.25,13.03-11.23,42.47-53.73,34.31-205.42-.27-4.96,2.4-9.64,6.79-11.93h0l17.15-8.91c2.18-1.13,4.78-1.11,6.94.06,2.15,1.17,3.58,3.33,3.81,5.76,1.84,19.15,8.58,68.51,31.46,113.04,28.75,55.93,71.93,83.71,128.28,82.57,34.23-.69,61.72-12.49,81.69-35.05,45.93-51.88,40.34-146.21,37.53-173.88-.26-2.6.76-5.17,2.75-6.87,1.99-1.71,4.7-2.33,7.24-1.68l18.82,4.87c3.12.81,5.44,3.38,5.92,6.56,3.95,26.34,25.48,159.91,61.8,203.51,2.29,2.75,3.74,6.05,4.2,9.55l25.97,195.94c.07.55-.05,1.1-.36,1.57-1.01,1.54-26.49,37.86-178.09,42.06-27.66.76-54.36.99-80.18,1.21-113.33.95-202.85,1.7-215.02,48.9-.26,1.03-1.19,1.73-2.23,1.73ZM980.42,1055.68c-2.79,1.45-4.48,4.43-4.31,7.59,8.27,153.73-22.36,197.48-35.91,209.15-3.75,3.23-5.86,7.86-5.79,12.69l3.7,243.74c22.82-39.94,108.63-40.66,215.08-41.56,25.8-.22,52.48-.44,80.09-1.21,138.34-3.83,169.84-34.62,173.88-39.37l-25.85-194.99c-.35-2.64-1.45-5.13-3.18-7.21-37.1-44.54-58.84-179.22-62.82-205.77-.2-1.35-1.19-2.44-2.52-2.79l-18.82-4.87c-1.1-.28-2.22-.02-3.09.71-.85.73-1.28,1.79-1.16,2.91,2.86,28.15,8.51,124.12-38.66,177.4-20.86,23.56-49.48,35.88-85.05,36.6-58.27,1.16-102.85-27.44-132.47-85.07-23.25-45.23-30.09-95.28-31.95-114.7-.09-.93-.61-1.71-1.43-2.16-.82-.45-1.78-.46-2.62-.02l-17.15,8.91Z"/>
  <path class="cls-2" d="M1113.45,719.01c-20.61-30.28-26.77-45.88-23.36-62.23,5.45-26.13,34.67-51.07,63.09-53.9,16.29-1.62,24.35,4.81,38.69-1.83,15.57-7.21,14.27-18.59,28.64-25.91,21.35-10.87,47.65,2.34,52.5,4.77,27.4,13.76,36.66,40.38,38.6,46.44,6.52-5.47,16.14-11.98,28.9-15.76,38.15-11.27,86.92,7.08,105.69,43.64,15.68,30.54,4.56,62.35-2.73,83.19-21.63,61.86-75.92,89.59-86.6,94.78-11.61,5.64-58.53,27.6-113.87,13.64-52.21-13.17-77.99-51.06-129.56-126.83Z"/>
  <path class="cls-1" d="M1224.3,1006.53l-4.64-105.79s41.08-76.58-10.06-134.27c-51.14-57.69-131.6-35.69-144.56-26.23-12.96,9.46-28.73,31.17-24.25,53.73,4.48,22.56.41,56.48-6.42,65.09-6.83,8.61,8.72,12.03,8.72,12.03,0,0-3.13,32.05,17.12,57.85,4.09,5.21,10.78,7.68,17.29,6.44l32.6-6.17-6.26,79.8c-6.9,19.69-29.27,27.97-29.27,27.97,0,0,15.37,36.82,92.04,35.12,76.66-1.7,80.97-40.37,80.97-40.37-7.07-1.34-18.67-3.03-23.26-25.21Z"/>
  <path class="cls-3" d="M1161.45,1074.47c-72.89,0-88.38-35.07-89.02-36.6-.24-.58-.24-1.23.01-1.81.25-.58.72-1.02,1.31-1.24.21-.08,21.24-8.08,27.8-26.29l6-76.5-29.64,5.61c-7.42,1.41-14.9-1.39-19.53-7.28-17.94-22.86-18.08-50.05-17.73-57.54-3-.93-8.45-3.16-9.95-7.36-.62-1.73-.8-4.5,1.84-7.83,6.19-7.81,10.35-41.12,5.96-63.21-4.79-24.14,12.42-46.73,25.16-56.03,12.78-9.33,95.01-32.8,147.64,26.57,49.25,55.55,14.33,129.03,10.67,136.31l4.61,104.99c4.19,19.99,13.85,21.81,20.91,23.14l.49.09c1.18.22,1.99,1.32,1.86,2.52-.19,1.66-5.42,40.69-83.21,42.42-1.76.04-3.5.06-5.2.06ZM1077.8,1038.12c4.65,7.48,25.24,33.16,88.74,31.69,63.49-1.41,75.98-28.48,78.26-36.25-7.48-1.54-18.33-5.21-22.75-26.55-.02-.12-.04-.24-.05-.36l-4.64-105.79c-.02-.41.08-.83.27-1.19.4-.75,39.7-75.87-9.76-131.66-50.6-57.08-129.27-34.81-141.48-25.9-11.78,8.6-27.73,29.39-23.35,51.42,4.41,22.22.82,57.28-6.87,66.97-1.61,2.03-1.24,3.08-1.11,3.43.89,2.5,6.13,4.39,8.52,4.92,1.14.25,1.91,1.31,1.8,2.47-.03.31-2.77,31.48,16.64,56.21,3.56,4.54,9.33,6.67,15.05,5.6l32.6-6.17c.71-.13,1.43.07,1.97.55.53.48.82,1.18.76,1.89l-6.26,79.8c-.02.2-.06.39-.12.58-5.87,16.75-22,25.51-28.21,28.34Z"/>
  <path class="cls-2" d="M1168.68,838.34l9.71,8.7s5.77-19.07,21.55-21.39c15.79-2.31,30.11,30.42,9.65,52.24-20.46,21.82,10.06,22.85,10.06,22.85,0,0,68.28-31.03,45.13-129.23-23.15-98.19-100.2-111.44-188.16-55.38,0,0-13.73,8.72-35.85,0-22.11-8.72-56.87-3.09-60.29,24.1-3.42,27.19,27.08,46.28,63.99,35.37,36.92-10.91,48.26-20.8,67.14-14.15,0,0-11.44,14.95,18.19,23.02,29.63,8.07,51.14,19.77,38.87,53.87Z"/>
  <path class="cls-3" d="M1269.56,810.63s-.07,0-.11,0c-1.27-.06-2.25-1.13-2.2-2.4,4.59-103.21-68.08-118.72-68.82-118.86-1.25-.25-2.06-1.46-1.82-2.71.25-1.25,1.46-2.06,2.7-1.81.77.15,77.3,16.46,72.53,123.59-.05,1.23-1.08,2.2-2.3,2.2Z"/>
  <path class="cls-2" d="M819.94,2138.95h273.64s-88.4-311.99-88.4-311.99c-2.76-9.75-11.64-15.66-23.51-15.66h-222.07c-14.11,0-28.21,15.1-24.93,26.68l85.28,300.97Z"/>
  <path class="cls-1" d="M841.63,1920.71c3.87,13.67,18.93,24.76,33.63,24.76s23.47-11.09,19.59-24.76c-3.87-13.67-18.93-24.76-33.63-24.76-14.7,0-23.47,11.09-19.59,24.76Z"/>
  <path class="cls-2" d="M845.13,2136.72h459.78c14.45,0,26.18,11.73,26.18,26.18v2.11h-512.13v-2.11c0-14.45,11.73-26.18,26.18-26.18Z" transform="translate(2150.04 4301.72) rotate(180)"/>
  <path class="cls-1" d="M1069.17,2141.54h-235c-1.27,0-2.3-1.03-2.3-2.3s1.03-2.3,2.3-2.3h235c1.27,0,2.3,1.03,2.3,2.3s-1.03,2.3-2.3,2.3Z"/>
  <path class="cls-3" d="M1455.79,2082.67c-.57,0-1.15-.21-1.59-.64-.92-.88-.95-2.34-.07-3.25l8.47-8.85c.88-.92,2.34-.95,3.25-.07.92.88.95,2.34.07,3.25l-8.47,8.85c-.45.47-1.06.71-1.66.71Z"/>
  <path class="cls-3" d="M1426.13,2113.64c-.57,0-1.15-.21-1.59-.64-.92-.88-.95-2.34-.07-3.26l8.47-8.85c.88-.92,2.34-.95,3.26-.07.92.88.95,2.34.07,3.26l-8.47,8.85c-.45.47-1.06.71-1.66.71Z"/>
  <path class="cls-3" d="M1434.44,2083.15c-.58,0-1.17-.22-1.61-.66l-8.6-8.47c-.91-.89-.92-2.35-.03-3.26.89-.91,2.35-.92,3.26-.03l8.6,8.47c.91.89.92,2.35.03,3.26-.45.46-1.05.69-1.64.69Z"/>
  <path class="cls-3" d="M1464.55,2112.78c-.58,0-1.17-.22-1.61-.66l-8.6-8.47c-.91-.89-.92-2.35-.03-3.26.89-.91,2.35-.92,3.26-.03l8.6,8.47c.91.89.92,2.35.03,3.26-.45.46-1.05.69-1.64.69Z"/>
  <path class="cls-3" d="M2049.21,1330.64c-.57,0-1.15-.21-1.59-.64-.92-.88-.95-2.34-.07-3.25l8.47-8.85c.88-.92,2.34-.95,3.25-.07.92.88.95,2.34.07,3.25l-8.47,8.85c-.45.47-1.06.71-1.66.71Z"/>
  <path class="cls-3" d="M2019.55,1361.6c-.57,0-1.15-.21-1.59-.64-.92-.88-.95-2.34-.07-3.25l8.47-8.85c.88-.92,2.34-.95,3.25-.07.92.88.95,2.34.07,3.25l-8.47,8.85c-.45.47-1.06.71-1.66.71Z"/>
  <path class="cls-3" d="M2027.87,1331.11c-.58,0-1.17-.22-1.61-.66l-8.6-8.47c-.91-.89-.92-2.35-.03-3.26.89-.91,2.35-.92,3.26-.03l8.6,8.47c.91.89.92,2.35.03,3.26-.45.46-1.05.69-1.64.69Z"/>
  <path class="cls-3" d="M2057.97,1360.75c-.58,0-1.17-.22-1.61-.66l-8.6-8.47c-.91-.89-.92-2.35-.03-3.26.89-.91,2.35-.92,3.26-.03l8.6,8.47c.91.89.92,2.35.03,3.26-.45.46-1.05.69-1.64.69Z"/>
  <path class="cls-3" d="M672.97,1591.93c-1.25,0-2.27-1-2.3-2.25l-.26-12.25c-.03-1.27.98-2.33,2.25-2.35h.05c1.25,0,2.27,1,2.3,2.25l.26,12.25c.03,1.27-.98,2.33-2.25,2.35h-.05Z"/>
  <path class="cls-3" d="M673.89,1634.8c-1.25,0-2.27-1-2.3-2.25l-.26-12.25c-.03-1.27.98-2.33,2.25-2.35,1.28-.02,2.33.98,2.35,2.25l.26,12.25c.03,1.27-.98,2.33-2.25,2.35h-.05Z"/>
  <path class="cls-3" d="M646.15,1607.46c-1.26,0-2.29-1.02-2.3-2.29-.01-1.27,1.01-2.31,2.29-2.32l12.07-.09c1.33.02,2.31,1.01,2.32,2.28.01,1.27-1.01,2.31-2.28,2.32l-12.07.09h-.02Z"/>
  <path class="cls-3" d="M688.39,1607.12c-1.26,0-2.29-1.02-2.3-2.28-.01-1.27,1.01-2.31,2.28-2.32l12.07-.09h.02c1.26,0,2.29,1.02,2.3,2.28.01,1.27-1.01,2.31-2.28,2.32l-12.07.09h-.02Z"/>
  <path class="cls-3" d="M2018.91,1255.15c-2.1,0-4.21-.39-6.23-1.18-4.4-1.71-7.86-5.06-9.75-9.45-3.86-8.95.14-19.43,8.93-23.38,4.23-1.9,8.94-2.02,13.27-.34,4.4,1.71,7.86,5.06,9.75,9.45,3.86,8.95-.15,19.43-8.93,23.38-2.25,1.01-4.64,1.52-7.04,1.52ZM2018.9,1224.24c-1.75,0-3.5.37-5.15,1.11-6.5,2.92-9.45,10.7-6.59,17.35,1.4,3.25,3.95,5.72,7.19,6.98,3.16,1.23,6.61,1.14,9.71-.25,6.5-2.92,9.46-10.7,6.59-17.35-1.4-3.25-3.95-5.72-7.19-6.98-1.48-.58-3.02-.86-4.56-.86ZM2012.8,1223.25h.02-.02Z"/>
  <path class="cls-3" d="M903.12,418.46c-3.16,0-6.33-.59-9.36-1.77-6.61-2.57-11.82-7.62-14.66-14.22-5.81-13.47.21-29.26,13.43-35.2,6.36-2.86,13.44-3.04,19.94-.52,6.61,2.57,11.82,7.62,14.67,14.22,5.81,13.47-.21,29.26-13.43,35.2-3.39,1.52-6.98,2.28-10.57,2.28ZM903.1,369.6c-2.96,0-5.91.63-8.69,1.88-10.94,4.91-15.91,18-11.09,29.17,2.35,5.46,6.65,9.63,12.11,11.75,5.34,2.07,11.16,1.92,16.38-.42,10.94-4.91,15.91-18,11.09-29.17-2.35-5.46-6.65-9.63-12.11-11.75-2.49-.97-5.1-1.45-7.69-1.45Z"/>
  <path class="cls-3" d="M1518.28,381.57c-2.18,0-4.36-.4-6.45-1.22-4.55-1.77-8.13-5.24-10.09-9.78-4-9.26.15-20.12,9.25-24.2,4.38-1.97,9.26-2.1,13.73-.35,4.55,1.77,8.13,5.24,10.09,9.78,4,9.26-.15,20.12-9.24,24.2-2.33,1.05-4.81,1.57-7.29,1.57ZM1518.26,349.4c-1.84,0-3.67.39-5.4,1.16-6.81,3.06-9.91,11.21-6.9,18.18,1.47,3.4,4.14,5.99,7.53,7.31,3.31,1.29,6.92,1.19,10.18-.26,6.81-3.06,9.9-11.21,6.9-18.18-1.47-3.4-4.14-5.99-7.53-7.31-1.55-.6-3.17-.9-4.78-.9Z"/>
  <path class="cls-3" d="M1630.88,349.58c-.57,0-1.15-.21-1.59-.64-.92-.88-.95-2.34-.07-3.26l8.47-8.85c.89-.92,2.34-.95,3.26-.07.92.88.95,2.34.07,3.26l-8.47,8.85c-.45.47-1.06.71-1.66.71Z"/>
  <path class="cls-3" d="M1601.21,380.54c-.57,0-1.15-.21-1.59-.64-.92-.88-.95-2.34-.07-3.26l8.47-8.85c.88-.92,2.34-.95,3.26-.07.92.88.95,2.34.07,3.26l-8.47,8.85c-.45.47-1.06.71-1.66.71Z"/>
  <path class="cls-3" d="M1609.53,350.06c-.58,0-1.17-.22-1.61-.66l-8.6-8.47c-.91-.89-.92-2.35-.03-3.26.89-.91,2.35-.92,3.26-.03l8.6,8.47c.91.89.92,2.35.03,3.26-.45.46-1.05.69-1.64.69Z"/>
  <path class="cls-3" d="M1639.64,379.69c-.58,0-1.17-.22-1.61-.66l-8.6-8.47c-.91-.89-.92-2.35-.03-3.26.89-.91,2.35-.92,3.26-.03l8.6,8.47c.91.89.92,2.35.03,3.26-.45.46-1.05.69-1.64.69Z"/>
  <path class="cls-3" d="M1725.02,842.76c-11.25,0-20.41-9.16-20.41-20.41s9.16-20.41,20.41-20.41,20.41,9.16,20.41,20.41-9.16,20.41-20.41,20.41ZM1725.02,806.54c-8.72,0-15.8,7.09-15.8,15.81s7.09,15.8,15.8,15.8,15.81-7.09,15.81-15.8-7.09-15.81-15.81-15.81Z"/>
  <path class="cls-3" d="M1044.85,354.3c-1.25,0-2.27-1-2.3-2.25l-.26-12.25c-.03-1.27.98-2.33,2.25-2.35,1.27-.06,2.32.98,2.35,2.25l.26,12.25c.03,1.27-.98,2.33-2.25,2.35h-.05Z"/>
  <path class="cls-3" d="M1045.77,397.16c-1.25,0-2.27-1-2.3-2.25l-.26-12.25c-.03-1.27.98-2.33,2.25-2.35,1.28-.09,2.32.98,2.35,2.25l.26,12.25c.03,1.27-.98,2.33-2.25,2.35h-.05Z"/>
  <path class="cls-3" d="M1018.02,369.82c-1.26,0-2.29-1.02-2.3-2.29-.01-1.27,1.01-2.31,2.29-2.32l12.07-.1h.02c1.26,0,2.29,1.02,2.3,2.29.01,1.27-1.01,2.31-2.28,2.32l-12.07.1h-.02Z"/>
  <path class="cls-3" d="M1060.27,369.49c-1.26,0-2.29-1.02-2.3-2.28-.01-1.27,1.01-2.31,2.28-2.32l12.07-.1h.02c1.26,0,2.29,1.02,2.3,2.28.01,1.27-1.01,2.31-2.29,2.32l-12.07.1h-.02Z"/>
</svg>