<svg width="58" height="58" viewBox="0 0 58 58" fill="none" xmlns="http://www.w3.org/2000/svg">
<rect width="58" height="58" rx="8" fill="url(#paint0_linear_2_5)"/>
<path d="M29.0002 27.8502C35.6414 27.8503 41.7549 32.4722 45.4279 36.0456C46.3792 36.9712 46.3793 38.3739 45.4279 39.2995C41.7548 42.8728 35.6413 47.4937 29.0002 47.4938C22.0075 47.4938 15.6134 42.3724 12.0539 38.7858C11.4163 38.1432 11.4159 37.2015 12.0539 36.5583C12.4941 36.1147 12.988 35.6363 13.5304 35.1413C17.3011 31.6997 22.94 27.8502 29.0002 27.8502Z" stroke="white" stroke-width="5"/>
<path d="M13.7994 22.6695C12.7797 23.6003 12.7075 25.1816 13.6383 26.2014C14.5691 27.2212 16.1504 27.2933 17.1702 26.3625L15.4848 24.516L13.7994 22.6695ZM42.6013 24.5948L40.9097 26.4356V26.4356L42.6013 24.5948ZM42.6013 31.3339L44.2929 33.1746V33.1746L42.6013 31.3339ZM15.4848 24.516L17.1702 26.3625C20.1175 23.6724 24.4323 20.7566 29 20.7566V18.2566V15.7566C22.4826 15.7566 16.9669 19.7785 13.7994 22.6695L15.4848 24.516ZM29 18.2566V20.7566C33.6126 20.7566 37.9654 23.7298 40.9097 26.4356L42.6013 24.5948L44.2929 22.7541C41.1357 19.8526 35.5772 15.7566 29 15.7566V18.2566ZM29 37.6721V35.1721C24.7877 35.1721 20.7775 32.6917 17.8357 30.1566L16.2037 32.0504L14.5716 33.9442C17.7887 36.7166 22.9587 40.1721 29 40.1721V37.6721ZM42.6013 31.3339L40.9097 29.4931C37.9654 32.1989 33.6126 35.1721 29 35.1721V37.6721V40.1721C35.5772 40.1721 41.1357 36.0761 44.2929 33.1746L42.6013 31.3339ZM42.6013 24.5948L40.9097 26.4356C41.8457 27.2958 41.8457 28.6329 40.9097 29.4931L42.6013 31.3339L44.2929 33.1746C47.3846 30.3334 47.3846 25.5953 44.2929 22.7541L42.6013 24.5948Z" fill="white"/>
<circle cx="29" cy="8.80315" r="4.99717" fill="white"/>
<defs>
<linearGradient id="paint0_linear_2_5" x1="3.30478e-07" y1="7.79104" x2="58" y2="50.209" gradientUnits="userSpaceOnUse">
<stop stop-color="#003C3A"/>
<stop offset="1" stop-color="#20C9C3"/>
</linearGradient>
</defs>
</svg>
